<svg xmlns="http://www.w3.org/2000/svg" xmlns:xlink="http://www.w3.org/1999/xlink" width="200" zoomAndPan="magnify" viewBox="0 0 150 30.000001" height="40" preserveAspectRatio="xMidYMid meet" version="1.0"><defs><clipPath id="269e411090"><path d="M 4.066406 2.613281 L 25.117188 2.613281 L 25.117188 24.386719 L 4.066406 24.386719 Z M 4.066406 2.613281 " clip-rule="nonzero"/></clipPath><clipPath id="6bdd9c4cdc"><path d="M 4.066406 3 L 22 3 L 22 22 L 4.066406 22 Z M 4.066406 3 " clip-rule="nonzero"/></clipPath><clipPath id="e3d3720e6a"><path d="M 25.804688 4.265625 L 42.5 4.265625 L 42.5 23.136719 L 25.804688 23.136719 Z M 25.804688 4.265625 " clip-rule="nonzero"/></clipPath><clipPath id="71965820f8"><path d="M 44.035156 3.675781 L 63.628906 3.675781 L 63.628906 23.273438 L 44.035156 23.273438 Z M 44.035156 3.675781 " clip-rule="nonzero"/></clipPath><clipPath id="92c84546fe"><path d="M 44.035156 4 L 61 4 L 61 21 L 44.035156 21 Z M 44.035156 4 " clip-rule="nonzero"/></clipPath><clipPath id="7aca10fb24"><path d="M 126.6875 4.742188 L 142 4.742188 L 142 23.613281 L 126.6875 23.613281 Z M 126.6875 4.742188 " clip-rule="nonzero"/></clipPath><clipPath id="9a90364081"><path d="M 129 12 L 131 12 L 131 23.613281 L 129 23.613281 Z M 129 12 " clip-rule="nonzero"/></clipPath><clipPath id="2715057504"><path d="M 138 19 L 142 19 L 142 23.613281 L 138 23.613281 Z M 138 19 " clip-rule="nonzero"/></clipPath><clipPath id="ebab5e24ca"><path d="M 138 19 L 141 19 L 141 23.613281 L 138 23.613281 Z M 138 19 " clip-rule="nonzero"/></clipPath><clipPath id="4673ffbd84"><path d="M 126.6875 4.742188 L 131 4.742188 L 131 8 L 126.6875 8 Z M 126.6875 4.742188 " clip-rule="nonzero"/></clipPath><clipPath id="5265824774"><path d="M 126.6875 4.742188 L 130 4.742188 L 130 8 L 126.6875 8 Z M 126.6875 4.742188 " clip-rule="nonzero"/></clipPath><clipPath id="fdad472dc8"><path d="M 134 11 L 138 11 L 138 23.613281 L 134 23.613281 Z M 134 11 " clip-rule="nonzero"/></clipPath><clipPath id="e5d50ee335"><path d="M 129 11 L 131 11 L 131 23.613281 L 129 23.613281 Z M 129 11 " clip-rule="nonzero"/></clipPath><clipPath id="12596d724c"><path d="M 140 4.742188 L 142 4.742188 L 142 19 L 140 19 Z M 140 4.742188 " clip-rule="nonzero"/></clipPath><clipPath id="cda260214f"><path d="M 131 4.742188 L 138 4.742188 L 138 12 L 131 12 Z M 131 4.742188 " clip-rule="nonzero"/></clipPath><clipPath id="5b96297bdd"><path d="M 126.6875 4.742188 L 142.21875 4.742188 L 142.21875 23.613281 L 126.6875 23.613281 Z M 126.6875 4.742188 " clip-rule="nonzero"/></clipPath><clipPath id="0cd86a4fad"><path d="M 138 19 L 142.21875 19 L 142.21875 23.613281 L 138 23.613281 Z M 138 19 " clip-rule="nonzero"/></clipPath><clipPath id="b9dd11aba4"><path d="M 126.6875 4.742188 L 131 4.742188 L 131 9 L 126.6875 9 Z M 126.6875 4.742188 " clip-rule="nonzero"/></clipPath><clipPath id="36ca31f667"><path d="M 126.6875 22 L 129 22 L 129 23.613281 L 126.6875 23.613281 Z M 126.6875 22 " clip-rule="nonzero"/></clipPath><clipPath id="333660060b"><path d="M 62.171875 4.375 L 80.316406 4.375 L 80.316406 23.246094 L 62.171875 23.246094 Z M 62.171875 4.375 " clip-rule="nonzero"/></clipPath><clipPath id="d80f7db0fc"><path d="M 81.703125 5 L 88.960938 5 L 88.960938 23 L 81.703125 23 Z M 81.703125 5 " clip-rule="nonzero"/></clipPath><clipPath id="f831ef6aed"><path d="M 107.820312 4.914062 L 124.515625 4.914062 L 124.515625 23.0625 L 107.820312 23.0625 Z M 107.820312 4.914062 " clip-rule="nonzero"/></clipPath><clipPath id="d81a221bab"><path d="M 91.703125 4.914062 L 106.21875 4.914062 L 106.21875 23.0625 L 91.703125 23.0625 Z M 91.703125 4.914062 " clip-rule="nonzero"/></clipPath></defs><g clip-path="url(#269e411090)"><path fill="#000000" d="M 22.800781 14.667969 L 16.359375 12.734375 L 16.148438 13.707031 C 15.949219 14.617188 15.644531 15.304688 15.238281 15.746094 C 14.90625 16.109375 14.382812 16.285156 13.652344 16.292969 C 13.585938 15.839844 13.542969 15.277344 13.542969 14.566406 C 13.542969 12.910156 13.851562 12.105469 14.117188 11.71875 C 14.585938 11.019531 15.21875 10.691406 16.109375 10.691406 C 16.117188 10.691406 16.128906 10.691406 16.136719 10.691406 L 16.21875 10.957031 L 18.527344 13.242188 L 25.042969 11.808594 L 24.71875 10.847656 C 24.167969 9.207031 23.355469 7.902344 22.300781 6.941406 C 22.113281 6.773438 20.429688 4.886719 19.308594 4.101562 C 17.917969 3.125 16.023438 2.632812 13.671875 2.632812 C 10.664062 2.632812 8.285156 3.488281 6.601562 5.171875 C 4.921875 6.855469 4.066406 9.257812 4.066406 12.308594 C 4.066406 14.589844 4.546875 16.5 5.496094 18 C 7.066406 20.46875 10.171875 22.972656 11.269531 23.472656 C 12.570312 24.0625 14.234375 24.363281 16.230469 24.363281 C 17.890625 24.363281 19.300781 24.113281 20.40625 23.621094 C 21.539062 23.117188 22.503906 22.363281 23.265625 21.378906 C 24.011719 20.414062 24.566406 19.207031 24.90625 17.792969 L 25.109375 16.953125 Z M 22.800781 14.667969 " fill-opacity="1" fill-rule="nonzero"/></g><g clip-path="url(#6bdd9c4cdc)"><path fill="#ffffff" d="M 17.046875 13.898438 L 21.699219 15.292969 C 21.386719 16.589844 20.894531 17.667969 20.222656 18.535156 C 19.546875 19.402344 18.71875 20.058594 17.71875 20.496094 C 16.722656 20.9375 15.457031 21.160156 13.917969 21.160156 C 12.050781 21.160156 10.523438 20.890625 9.34375 20.355469 C 8.160156 19.816406 7.136719 18.871094 6.277344 17.519531 C 5.417969 16.160156 4.988281 14.425781 4.988281 12.308594 C 4.988281 9.496094 5.746094 7.332031 7.257812 5.816406 C 8.769531 4.300781 10.90625 3.546875 13.671875 3.546875 C 15.835938 3.546875 17.535156 3.980469 18.777344 4.847656 C 20.015625 5.714844 20.9375 7.046875 21.539062 8.839844 L 16.851562 9.875 C 16.6875 9.359375 16.515625 8.980469 16.335938 8.734375 C 16.039062 8.332031 15.675781 8.023438 15.246094 7.808594 C 14.816406 7.59375 14.335938 7.484375 13.804688 7.484375 C 12.601562 7.484375 11.683594 7.964844 11.042969 8.917969 C 10.558594 9.632812 10.316406 10.75 10.316406 12.273438 C 10.316406 14.160156 10.609375 15.453125 11.183594 16.152344 C 11.761719 16.855469 12.574219 17.203125 13.621094 17.203125 C 14.636719 17.203125 15.402344 16.917969 15.925781 16.355469 C 16.4375 15.796875 16.8125 14.972656 17.046875 13.898438 Z M 17.046875 13.898438 " fill-opacity="1" fill-rule="nonzero"/></g><g clip-path="url(#e3d3720e6a)"><path fill="#000000" d="M 40.835938 16.6875 L 41.679688 16.6875 L 41.679688 11.976562 L 40.855469 11.203125 L 42.257812 11.203125 L 42.257812 6.34375 L 40.191406 4.3125 L 25.804688 4.3125 L 25.804688 21.066406 L 27.871094 23.101562 L 42.492188 23.101562 L 42.492188 18.046875 Z M 40.835938 16.6875 " fill-opacity="1" fill-rule="nonzero"/></g><path fill="#ffffff" d="M 26.632812 5.125 L 39.367188 5.125 L 39.367188 8.355469 L 31.390625 8.355469 L 31.390625 10.757812 L 38.789062 10.757812 L 38.789062 13.84375 L 31.390625 13.84375 L 31.390625 16.828125 L 39.59375 16.828125 L 39.59375 20.253906 L 26.632812 20.253906 Z M 26.632812 5.125 " fill-opacity="1" fill-rule="nonzero"/><g clip-path="url(#71965820f8)"><path fill="#000000" d="M 63.558594 23.28125 L 60.628906 17.480469 C 60.488281 17.191406 60.238281 16.820312 59.867188 16.347656 C 59.621094 16.039062 59.414062 15.796875 59.234375 15.617188 C 59.265625 15.601562 59.289062 15.582031 59.316406 15.566406 C 60.074219 15.101562 60.679688 14.480469 61.109375 13.726562 C 61.550781 12.960938 61.773438 12.054688 61.773438 11.027344 C 61.773438 9.847656 61.484375 8.828125 60.90625 7.988281 C 60.636719 7.59375 58.351562 4.710938 56.519531 4.105469 C 55.648438 3.816406 54.460938 3.675781 52.886719 3.675781 L 44.101562 3.675781 L 44.101562 21.160156 L 46.175781 23.28125 L 52.628906 23.28125 L 52.628906 18.125 L 54.234375 21.160156 L 56.308594 23.28125 Z M 63.558594 23.28125 " fill-opacity="1" fill-rule="nonzero"/></g><g clip-path="url(#92c84546fe)"><path fill="#ffffff" d="M 44.929688 20.3125 L 44.929688 4.523438 L 52.886719 4.523438 C 54.359375 4.523438 55.488281 4.652344 56.269531 4.910156 C 57.046875 5.171875 57.675781 5.648438 58.152344 6.347656 C 58.628906 7.050781 58.871094 7.902344 58.871094 8.90625 C 58.871094 9.78125 58.6875 10.539062 58.320312 11.171875 C 57.957031 11.808594 57.453125 12.320312 56.816406 12.714844 C 56.410156 12.964844 55.847656 13.175781 55.140625 13.339844 C 55.707031 13.535156 56.121094 13.726562 56.378906 13.921875 C 56.554688 14.050781 56.8125 14.328125 57.144531 14.753906 C 57.476562 15.175781 57.699219 15.503906 57.8125 15.730469 L 60.121094 20.304688 L 54.726562 20.304688 L 52.175781 15.480469 C 51.851562 14.859375 51.566406 14.449219 51.3125 14.265625 C 50.96875 14.019531 50.578125 13.898438 50.140625 13.898438 L 49.71875 13.898438 L 49.71875 20.304688 L 44.929688 20.304688 Z M 49.722656 10.921875 L 51.734375 10.921875 C 51.953125 10.921875 52.375 10.851562 53 10.707031 C 53.316406 10.640625 53.574219 10.476562 53.777344 10.210938 C 53.976562 9.941406 54.078125 9.636719 54.078125 9.292969 C 54.078125 8.785156 53.917969 8.394531 53.601562 8.117188 C 53.289062 7.847656 52.695312 7.710938 51.824219 7.710938 L 49.726562 7.710938 L 49.726562 10.921875 Z M 49.722656 10.921875 " fill-opacity="1" fill-rule="nonzero"/></g><g clip-path="url(#7aca10fb24)"><path fill="#3baa00" d="M 141.929688 4.960938 L 141.917969 8.730469 L 141.453125 18.128906 C 140.761719 18.121094 139.621094 18.117188 138.933594 18.128906 L 138.460938 8.765625 L 138.457031 4.960938 Z M 131.964844 9.566406 L 131.957031 4.960938 L 135.417969 4.960938 L 135.410156 9.578125 L 137.40625 9.578125 L 137.40625 11.957031 L 135.414062 11.953125 L 135.421875 19.621094 C 135.425781 20.390625 135.777344 20.714844 136.539062 20.742188 C 136.617188 20.742188 137.328125 20.742188 137.40625 20.742188 L 137.402344 23.125 C 136.226562 23.253906 134.894531 23.375 133.722656 23.140625 C 132.660156 22.929688 132.171875 22.332031 132.03125 21.179688 C 131.976562 20.777344 131.953125 20.375 131.953125 19.96875 L 131.957031 11.957031 L 130.222656 11.957031 L 130.234375 23.121094 L 126.800781 23.121094 L 126.800781 16.339844 L 126.792969 9.566406 Z M 131.964844 9.566406 " fill-opacity="1" fill-rule="nonzero"/></g><g clip-path="url(#9a90364081)"><path fill="#079332" d="M 129.089844 23.121094 L 130.234375 23.121094 L 130.222656 12.109375 L 129.089844 12.109375 Z M 129.089844 23.121094 " fill-opacity="1" fill-rule="nonzero"/></g><g clip-path="url(#2715057504)"><path fill="#25d600" d="M 138.460938 19.765625 L 141.914062 19.765625 L 141.914062 23.117188 L 138.460938 23.117188 Z M 138.460938 19.765625 " fill-opacity="1" fill-rule="nonzero"/></g><g clip-path="url(#ebab5e24ca)"><path fill="#7bea06" d="M 138.460938 19.765625 L 140.371094 19.765625 L 140.371094 23.117188 L 138.460938 23.117188 Z M 138.460938 19.765625 " fill-opacity="1" fill-rule="nonzero"/></g><g clip-path="url(#4673ffbd84)"><path fill="#25d600" d="M 126.8125 4.960938 C 127.789062 4.972656 129.234375 4.972656 130.210938 4.960938 L 130.207031 7.949219 L 126.804688 7.949219 Z M 126.8125 4.960938 " fill-opacity="1" fill-rule="nonzero"/></g><g clip-path="url(#5265824774)"><path fill="#7bea06" d="M 128.019531 4.96875 C 127.625 4.96875 127.210938 4.96875 126.8125 4.96875 L 126.804688 7.949219 L 129.089844 7.949219 L 129.089844 4.96875 C 128.738281 4.96875 128.375 4.96875 128.019531 4.96875 Z M 128.019531 4.96875 " fill-opacity="1" fill-rule="nonzero"/></g><g clip-path="url(#fdad472dc8)"><path fill="#079332" d="M 136.539062 20.742188 C 135.777344 20.714844 135.425781 20.390625 135.421875 19.621094 L 135.414062 11.953125 L 134.332031 11.953125 L 134.339844 19.621094 C 134.34375 20.390625 134.695312 20.714844 135.457031 20.742188 C 135.535156 20.742188 136.246094 20.742188 136.324219 20.742188 L 136.320312 23.125 C 135.808594 23.183594 135.265625 23.234375 134.71875 23.257812 C 135.617188 23.304688 136.550781 23.21875 137.402344 23.125 L 137.40625 20.742188 C 137.328125 20.742188 136.617188 20.742188 136.539062 20.742188 Z M 136.539062 20.742188 " fill-opacity="1" fill-rule="nonzero"/></g><g clip-path="url(#e5d50ee335)"><path fill="#079332" d="M 130.875 11.957031 L 129.140625 11.957031 L 129.152344 23.121094 L 130.234375 23.121094 L 130.222656 11.957031 Z M 130.875 11.957031 " fill-opacity="1" fill-rule="nonzero"/></g><g clip-path="url(#12596d724c)"><path fill="#079332" d="M 140.84375 4.960938 L 140.835938 8.730469 L 140.371094 18.121094 C 140.765625 18.121094 141.152344 18.125 141.453125 18.128906 L 141.917969 8.730469 L 141.929688 4.960938 Z M 140.84375 4.960938 " fill-opacity="1" fill-rule="nonzero"/></g><path fill="#079332" d="M 138.933594 18.121094 L 138.933594 18.128906 C 139.140625 18.125 139.390625 18.125 139.65625 18.121094 C 139.421875 18.121094 139.175781 18.121094 138.933594 18.121094 Z M 138.933594 18.121094 " fill-opacity="1" fill-rule="nonzero"/><g clip-path="url(#cda260214f)"><path fill="#079332" d="M 135.417969 4.960938 L 131.957031 4.960938 L 134.335938 4.960938 L 134.328125 9.578125 L 136.324219 9.578125 L 136.324219 11.953125 L 137.40625 11.957031 L 137.40625 9.578125 L 135.410156 9.578125 Z M 135.417969 4.960938 " fill-opacity="1" fill-rule="nonzero"/></g><g clip-path="url(#5b96297bdd)"><path stroke-linecap="round" transform="matrix(0.147963, 0, 0, 0.149296, 122.433348, 3.66553)" fill="none" stroke-linejoin="round" d="M 131.764586 8.676795 L 131.685386 33.925564 L 128.543774 96.877418 C 123.870955 96.825089 116.162124 96.798925 111.515706 96.877418 L 108.321293 34.161045 L 108.294893 8.676795 Z M 64.417918 39.524773 L 64.365117 8.676795 L 87.755611 8.676795 L 87.70281 39.603267 L 101.193264 39.603267 L 101.193264 55.537464 L 87.729211 55.5113 L 87.782011 106.872268 C 87.808411 112.02668 90.18442 114.198336 95.332441 114.381487 C 95.860443 114.381487 100.665262 114.381487 101.193264 114.381487 L 101.166864 130.341849 C 93.220433 131.205279 84.217997 132.016379 76.297965 130.446507 C 69.117136 129.033623 65.817123 125.03045 64.866719 117.311914 C 64.497118 114.616968 64.338717 111.922022 64.338717 109.200911 L 64.365117 55.537464 L 52.643471 55.537464 L 52.722671 130.315685 L 29.516978 130.315685 L 29.516978 84.894064 L 29.464178 39.524773 Z M 64.417918 39.524773 " stroke="#33363a" stroke-width="3" stroke-opacity="1" stroke-miterlimit="10"/></g><g clip-path="url(#0cd86a4fad)"><path stroke-linecap="round" transform="matrix(0.147963, 0, 0, 0.149296, 122.433348, 3.66553)" fill="none" stroke-linejoin="round" d="M 108.321293 107.840355 L 131.658986 107.840355 L 131.658986 130.28952 L 108.321293 130.28952 Z M 108.321293 107.840355 " stroke="#33363a" stroke-width="3" stroke-opacity="1" stroke-miterlimit="10"/></g><g clip-path="url(#b9dd11aba4)"><path stroke-linecap="round" transform="matrix(0.147963, 0, 0, 0.149296, 122.433348, 3.66553)" fill="none" stroke-linejoin="round" d="M 29.596179 8.676795 C 36.196205 8.755288 45.964244 8.755288 52.56427 8.676795 L 52.53787 28.692659 L 29.543378 28.692659 Z M 29.596179 8.676795 " stroke="#33363a" stroke-width="3" stroke-opacity="1" stroke-miterlimit="10"/></g><path stroke-linecap="round" transform="matrix(0.147963, 0, 0, 0.149296, 122.433348, 3.66553)" fill="none" stroke-linejoin="round" d="M 56.709087 55.537464 L 44.98744 55.537464 " stroke="#33363a" stroke-width="3" stroke-opacity="1" stroke-miterlimit="10"/><path stroke-linecap="round" transform="matrix(0.147963, 0, 0, 0.149296, 122.433348, 3.66553)" fill="none" stroke-linejoin="round" d="M 92.322829 55.537464 L 80.601182 55.537464 " stroke="#33363a" stroke-width="3" stroke-opacity="1" stroke-miterlimit="10"/><g clip-path="url(#36ca31f667)"><path stroke-linecap="round" transform="matrix(0.147963, 0, 0, 0.149296, 122.433348, 3.66553)" fill="none" stroke-linejoin="round" d="M 26.190565 130.28952 L 42.136229 130.28952 " stroke="#33363a" stroke-width="3" stroke-opacity="1" stroke-miterlimit="10"/></g><g clip-path="url(#333660060b)"><path fill="#000000" d="M 78.207031 4.375 L 62.210938 4.375 L 62.210938 9.761719 L 64.265625 11.804688 L 67.027344 11.804688 L 67.027344 21.210938 L 69.082031 23.253906 L 75.441406 23.253906 L 75.441406 11.804688 L 80.257812 11.804688 L 80.257812 6.417969 Z M 78.207031 4.375 " fill-opacity="1" fill-rule="nonzero"/></g><path fill="#ffffff" d="M 63.035156 5.191406 L 77.382812 5.191406 L 77.382812 8.945312 L 72.570312 8.945312 L 72.570312 20.394531 L 67.847656 20.394531 L 67.847656 8.945312 L 63.035156 8.945312 Z M 63.035156 5.191406 " fill-opacity="1" fill-rule="nonzero"/><g clip-path="url(#d80f7db0fc)"><path fill="#000000" d="M 87.074219 5.132812 L 81.703125 5.132812 L 81.703125 21.050781 L 83.570312 22.980469 L 88.945312 22.980469 L 88.945312 7.066406 Z M 87.074219 5.132812 " fill-opacity="1" fill-rule="nonzero"/></g><path fill="#ffffff" d="M 82.449219 5.90625 L 86.324219 5.90625 L 86.324219 20.277344 L 82.449219 20.277344 Z M 82.449219 5.90625 " fill-opacity="1" fill-rule="nonzero"/><g clip-path="url(#f831ef6aed)"><path fill="#000000" d="M 122.527344 4.914062 L 116.859375 4.914062 L 116.054688 7.695312 L 115.792969 6.851562 L 113.847656 4.914062 L 107.859375 4.914062 L 112.59375 16.125 C 112.4375 16.460938 112.300781 16.601562 112.222656 16.65625 C 112.066406 16.773438 111.835938 16.832031 111.539062 16.832031 C 110.910156 16.832031 110.339844 16.75 109.835938 16.59375 L 108.695312 16.230469 L 109.210938 20.808594 L 111.15625 22.742188 L 111.757812 22.820312 C 113.015625 22.984375 113.925781 23.066406 114.546875 23.066406 C 116.167969 23.066406 117.417969 22.679688 118.257812 21.917969 C 118.847656 21.386719 119.394531 20.441406 119.914062 19.042969 L 124.472656 6.851562 Z M 122.527344 4.914062 " fill-opacity="1" fill-rule="nonzero"/></g><path fill="#ffffff" d="M 109.03125 5.691406 L 113.273438 5.691406 L 115.4375 12.632812 L 117.449219 5.691406 L 121.410156 5.691406 L 117.246094 16.835938 C 116.769531 18.109375 116.289062 18.964844 115.792969 19.414062 C 115.097656 20.042969 114.03125 20.355469 112.605469 20.355469 C 112.023438 20.355469 111.128906 20.277344 109.917969 20.121094 L 109.605469 17.332031 C 110.183594 17.511719 110.824219 17.605469 111.539062 17.605469 C 112.011719 17.605469 112.394531 17.496094 112.6875 17.28125 C 112.980469 17.0625 113.230469 16.675781 113.433594 16.121094 Z M 109.03125 5.691406 " fill-opacity="1" fill-rule="nonzero"/><g clip-path="url(#d81a221bab)"><path fill="#000000" d="M 106.230469 11.609375 L 106.230469 6.925781 L 104.292969 4.976562 L 91.703125 4.976562 L 91.703125 21.058594 L 93.644531 23.007812 L 99.679688 23.007812 L 99.679688 17.074219 L 105.277344 17.074219 L 105.277344 12.585938 L 104.113281 11.609375 Z M 106.230469 11.609375 " fill-opacity="1" fill-rule="nonzero"/></g><path fill="#ffffff" d="M 92.480469 5.757812 L 103.515625 5.757812 L 103.515625 8.878906 L 96.964844 8.878906 L 96.964844 11.414062 L 102.558594 11.414062 L 102.558594 14.34375 L 96.964844 14.34375 L 96.964844 20.277344 L 92.480469 20.277344 Z M 92.480469 5.757812 " fill-opacity="1" fill-rule="nonzero"/></svg>